<?xml version="1.0" standalone="no"?><!DOCTYPE svg PUBLIC "-//W3C//DTD SVG 1.1//EN" "http://www.w3.org/Graphics/SVG/1.1/DTD/svg11.dtd"><svg t="1695030463864" class="icon" viewBox="0 0 1024 1024" version="1.1" xmlns="http://www.w3.org/2000/svg" p-id="12859" xmlns:xlink="http://www.w3.org/1999/xlink" width="200" height="200"><path d="M512 64c247.424 0 448 200.576 448 448S759.424 960 512 960 64 759.424 64 512 264.576 64 512 64z m0 72c-207.66 0-376 168.34-376 376s168.34 376 376 376 376-168.34 376-376-168.34-376-376-376z m18.244 243.988c26.873-14.507 58.718 9.162 52.229 39.295l-42.562 197.63 7.292-5.597 0.475-0.358c15.747-11.688 38.017-8.62 50.002 6.994 12.107 15.771 9.136 38.37-6.636 50.477l-85.04 65.28-0.802 0.6c-26.524 19.326-63.296-4.308-56.313-36.735l46.224-214.635-25.133 14.35c-17.266 9.857-39.255 3.85-49.113-13.416-9.857-17.266-3.851-39.254 13.415-49.112zM532 258c23.196 0 42 18.804 42 42s-18.804 42-42 42-42-18.804-42-42 18.804-42 42-42z" p-id="12860" fill="#ffffff"></path></svg>