<?xml version="1.0" standalone="no"?><!DOCTYPE svg PUBLIC "-//W3C//DTD SVG 1.1//EN" "http://www.w3.org/Graphics/SVG/1.1/DTD/svg11.dtd"><svg t="1695030476635" class="icon" viewBox="0 0 1024 1024" version="1.1" xmlns="http://www.w3.org/2000/svg" p-id="13528" xmlns:xlink="http://www.w3.org/1999/xlink" width="200" height="200"><path d="M512 64c247.424 0 448 200.576 448 448S759.424 960 512 960 64 759.424 64 512 264.576 64 512 64z m0 72c-207.66 0-376 168.34-376 376s168.34 376 376 376 376-168.34 376-376-168.34-376-376-376z m176.77 199.23c14.692 14.691 14.839 38.42 0.441 53.292l-0.44 0.448L565.74 512l122.621 122.621c14.84 14.84 14.84 38.9 0 53.74-14.691 14.692-38.42 14.839-53.292 0.441l-0.448-0.44L512 565.74 388.964 688.777c-14.84 14.84-38.9 14.84-53.74 0-14.692-14.692-14.839-38.42-0.441-53.293l0.44-0.448L458.26 512 335.64 389.38c-14.84-14.84-14.84-38.9 0-53.74 14.691-14.692 38.42-14.839 53.292-0.441l0.448 0.44L512 458.26l123.03-123.03c14.84-14.84 38.9-14.84 53.74 0z" p-id="13529" fill="#ffffff"></path></svg>